<svg fill="none" height="370" viewBox="0 0 256 370" width="256" xmlns="http://www.w3.org/2000/svg"><path d="m153.347 144.721c0 43.997-33.404 95.39-60.7452 95.39-27.3408 0-49.5048-35.667-49.5048-79.664 0-43.998 4.1083-90.1636 71.675-84.9143 27.258 2.1188 38.575 25.1903 38.575 69.1883z" fill="#f1c8ad"/><path d="m170.831 240.111c-1.265-12.963-5.948-15.412-7.574-21.459-1.805-6.72 1.802-14.758 3.971-20.762 12.116-1.527 1.02 20.361 8.189 21.099" fill="#f1c8ad"/><path d="m197.09 248.87s-28.045 5.64-27.997 1.819c0 0 11.725-53.96 15.26-72.203-.023-3.844 39.346-9.59 38.62-6.232-1.954 9.049-6.955 30.058-8.133 36.138" fill="#fff"/><path d="m196.635 247.219c-5.078 1.019-10.204 1.88-15.345 2.507-3.137.383-6.365.754-9.528.511-.398-.031-.784-.113-1.167-.223-.503-.144.174.122-.205-.101.412.243.459.741.354 1.225.066-.304.131-.607.197-.911 2.932-13.514 5.838-27.032 8.707-40.559 1.722-8.112 3.432-16.227 5.083-24.355.303-1.484.601-2.968.894-4.456.127-.639.252-1.278.377-1.917.2-1.031.026-.131-.067.051-.248.481.212-.156-.072.062 1.688-1.3 4.193-1.762 6.199-2.29 6.874-1.804 14.011-2.883 21.083-3.518 2.594-.232 5.254-.446 7.855-.2.198.018.422.06.767.157.43.118-.287-.164.043.013-.354-.19-.52-.673-.54-1.038.033.583-.37 1.546-.505 2.155-.257 1.158-.52 2.316-.781 3.473-2.273 10.036-4.821 20.032-6.797 30.132-.421 2.157 2.879 3.075 3.302.91 1.682-8.602 3.82-17.125 5.778-25.667.497-2.168.992-4.338 1.48-6.509.318-1.42 1.257-3.567.881-5.02-.468-1.825-2.779-1.985-4.307-2.084-6.37-.413-13.047.796-19.303 1.845-3.432.576-6.853 1.258-10.22 2.143-2.19.575-4.611 1.198-6.53 2.448-1.973 1.288-1.866 3.574-2.294 5.706-.71 3.55-1.442 7.098-2.178 10.644-1.801 8.673-3.641 17.337-5.491 26-1.636 7.664-3.283 15.326-4.939 22.986-.495 2.293-.99 4.584-1.487 6.876-.215.985-.642 2.15-.403 3.159.498 2.106 3.474 2.264 5.165 2.338 3.323.144 6.696-.308 9.985-.73 4.997-.643 9.979-1.471 14.919-2.463 2.165-.432 1.247-3.732-.91-3.3z" fill="#fff"/><g fill="#000"><path d="m96.792 111.588c.7438-4.842 6.943-9.743 11.843-9.253 2.196.219 2.176-3.2064 0-3.4243-6.262-.6264-14.191 5.5583-15.1439 11.7673-.3313 2.158 2.9672 3.087 3.3009.91z"/><path d="m135.393 109.615c2.83-.93 5.367-1.559 8.167-.173 1.97.977 3.706-1.976 1.727-2.956-3.678-1.821-7.013-1.42-10.806-.172-2.086.686-1.192 3.993.912 3.301z"/><path d="m99.9692 145.341c9.5098 8.627 24.9618 12.359 36.9318 7.068 2.015-.891.271-3.841-1.728-2.957-10.473 4.63-24.524.959-32.783-6.533-1.631-1.479-4.0604.934-2.4208 2.422z"/><path d="m102.57 140.457c.102-.166.181-.19 0-.084-.281.164-.364.184-.685.306-.724.278-1.459.52-2.1748.821-1.4852.624-2.841 1.469-2.9841 3.222-.1817 2.202 3.2446 2.184 3.4239 0-.017.214-.036.36-.2058.491.2098-.162.4518-.282.6858-.401.551-.281 1.158-.464 1.739-.674 1.16-.419 2.475-.844 3.157-1.952 1.16-1.887-1.802-3.605-2.956-1.729z"/><path d="m102.652 121.781v7.654c0 .933.779 1.713 1.712 1.713h1.39c.739 0 1.479-.52 1.652-1.257.626-2.687.756-5.359.757-8.109 0-.933-.78-1.713-1.713-1.713-.463 0-.928 0-1.391 0-.555 0-1.236.316-1.479.849-1.329 2.932-2.283 9.056 1.15 11.039.697.403 1.492.25 2.074-.268 1.994-1.77 3.672-4.216 3.77-6.954.122-3.434-3.41-4.593-6.211-4.665-2.274-.057-2.112 3.142 0 3.425 3.717.496 7.046.363 10.261-1.708 1.848-1.191.134-4.156-1.728-2.957-2.717 1.751-5.403 1.659-8.532 1.24v3.425c1.252.031 3.055.092 2.734 1.755-.308 1.601-1.538 2.973-2.715 4.019.692-.09 1.383-.179 2.074-.268-1.419-.82-.42-5.251.081-6.354-.493.284-.987.566-1.479.849h1.391c-.571-.571-1.14-1.142-1.711-1.712-.002 2.446-.078 4.806-.635 7.198.55-.419 1.101-.838 1.65-1.257-.463 0-.927 0-1.39 0 .571.571 1.142 1.141 1.712 1.712 0-2.551 0-5.102 0-7.654 0-2.21-3.424-2.21-3.424-.002z"/><path d="m142.217 127.11c-.084-.755-.266-1.351-.567-2.047-.328-.757-1.167-1.531-1.259-2.366-.571.569-1.141 1.14-1.712 1.711h1.392c-.551-.419-1.101-.838-1.652-1.257.427 1.12.784 2.165.722 3.372-.056 1.116-.494 2.282-.722 3.371.551-.419 1.101-.838 1.652-1.257-.232 0-.464 0-.695 0 .492.283.985.566 1.478.849-1.375-2.418-1.946-5.028.427-6.971-.954-.252-1.907-.504-2.862-.755.619 1.74 1.011 5.165-.254 6.684-1.403 1.683 1.006 4.119 2.421 2.422 2.153-2.584 2.206-7.005 1.136-10.016-.457-1.284-1.834-1.596-2.862-.756-3.571 2.924-3.044 7.46-.963 11.121.297.521.88.848 1.479.848h.695c.725 0 1.495-.518 1.651-1.257.655-3.134 1.181-5.469 0-8.564-.276-.722-.834-1.257-1.651-1.257-.465 0-.928 0-1.392 0-.854 0-1.815.783-1.712 1.713.083.754.266 1.35.566 2.046.329.758 1.167 1.531 1.26 2.368.24 2.168 3.666 2.19 3.424-.002z"/><path d="m139.162 123.331c2.363.405 4.315-.102 6.302-1.418 1.832-1.213.118-4.179-1.727-2.957-1.162.77-2.238 1.317-3.665 1.073-.92-.157-1.84.23-2.106 1.195-.23.832.274 1.949 1.196 2.107z"/></g><path d="m113.776 275.157c.604 14.183-.791 21.467-2.121 32.529-2.286 18.992-15.8006 38.949-43.6496 27.079-6.8479-2.74-21.6356-25.135-26.5069-33.485-12.5242-22.266-22.8965-43.881-32.63838-66.843-6.95643-16.7-19.48302-52.186 9.74188-54.273 12.5258-.697 22.4719 4.637 36.1829 7.654 0 0 8.7528 41.569 29.4597 42.795 0 0 16.1384-3.811 24.7164-20.633l2.694.939s25.685 5.808 32.976 16.011c12.833 17.964 17.791 40.022 17.791 52.788 0 0 4.829 14.49 13.732 16.077l13.513 3.204c-2.043 9.06-4.843 17.845-9.607 25.73-10.043 15.979-36.295 14.672-42.687-7.698l.613-1.984c-5.18 13.595-10.358 27.276-8.522 43.23.116 1.003-.693 3.785-3.168 4.825-5.701 2.397-18.57 6.358-41.3631 6.358-19.951 0-30.2815-3.035-35.3032-5.399-3.206-1.511-3.8356-4.064-3.1907-6.338 3.0669-10.811 11.3678-43.256 5.3329-58.72" fill="#b28db4"/><path d="m190.285 294.015c3.635-16.118 1.793-29.006 7.347-43.327l-25.095 3.081c-5.619 19.632-15.423 32.305-16.23 46.95 1.697.672 7.443 1.741 14.618 2.394 6.86.298 13.037-1.646 18.534-5.004z" fill="#f1c8ad"/><path d="m209.894 220.819c-7.951 1.673-24.536 4.278-21.059 9.586 2.154 2.499 4.347 3.319 5.563 2.852-3.671.496-5.156 3.033-4.14 6.469 1.32 2.831 4.369 3.124 6.588 1.827-2.467 2.667-1.659 3.089-2.098 4.65-.837 3.607 9.816 3.536 15.008-.104 7.043-2.674 10.346-12.33 3.768-10.409 3.837-2.419 7.815-9.65 3.074-10.667-3.92-2.425 1.281-3.433 3.222-4.904 1.942-1.473 7.329-9.062-2.939-10.057-4.515-.436-20.891-6.031-20.891.19-.001 2.42 9.889 10.036 13.904 10.567z" fill="#f1c8ad"/><path d="m84.7046 230.613c-.1254 0-.2517-.009-.3803-.025-1.4981-.209-2.5451-1.592-2.3368-3.091l3.0742-22.183c.0072-.048.0152-.097.0241-.145.1045-.538.2283-1.094.3683-1.654.7784-3.121 1.9805-6.043 3.1441-8.867 1.4602-3.549 2.8433-6.908 3.3153-10.406l-.1712-.858c-.0057-.027-.0105-.054-.0153-.083-1.0172-6.062-4.807-11.281-7.5716-15.094-2.5169-3.467-4.3358-5.972-2.7075-8.359 1.5858-2.326 4.7033-1.978 11.0937-.321.0595.016.1182.034.1785.052 4.2835 1.428 8.8609 3.661 13.5629 9.906.848-.97 1.582-1.91 2.299-2.83 2.778-3.565 5.404-6.93 11.992-7.95 9.384-1.454 15.092-1.732 24.43-1.196 1.51.086 2.664 1.382 2.576 2.892-.086 1.51-1.381 2.664-2.891 2.578-8.894-.511-14.333-.245-23.277 1.139-4.442.687-5.973 2.652-8.51 5.906-1.157 1.484-2.469 3.166-4.24 4.939l-.747.768c-.585.599-1.408.899-2.243.813-.832-.084-1.581-.546-2.029-1.252-4.2182-6.617-7.9429-8.931-12.5682-10.486-1.3075-.338-2.3415-.578-3.1593-.747.2259.316.4551.631.6722.931 2.9069 4.004 7.2958 10.05 8.5357 17.366l.2485 1.251c.0555.277.0675.563.0354.844-.501 4.406-2.1494 8.411-3.7432 12.283-1.1378 2.765-2.2137 5.377-2.8956 8.109-.1102.441-.2075.879-.2903 1.299l-3.0645 22.108c-.189 1.37-1.363 2.363-2.7091 2.363z" fill="#eea06f"/><path d="m123.547 119.653c.146 9.084 5.936 19.32 15.433 21.134-.399-.702-.797-1.404-1.195-2.106-.705 2.9-3.199 4.028-5.762 5.067-2.018.821-1.137 4.134.909 3.302 3.698-1.5 7.142-3.291 8.155-7.458.207-.85-.259-1.928-1.195-2.107-8.011-1.53-12.798-10.17-12.921-17.832-.037-2.206-3.461-2.208-3.424 0z" fill="#000"/><path d="m93.7709 117.943c-9.0125 0-18.0259 0-27.0393 0-2.2073 0-2.2073 3.424 0 3.424h27.0393c2.2089-.001 2.2089-3.424 0-3.424z" fill="#fff"/><path d="m68.4655 68.2811c-26.0213 6.1628-47.2484 14.3801-52.7269 44.5089-2.738 15.749 4.1083 24.652 7.5322 39.032 2.0545 6.848-3.4239 26.02-2.0537 27.39l33.5687 8.744c5.5661 2.399 12.0722 2.668 13.6684-4.643 1.5954-7.309 2.7203-32.677-5.4785-41.279 0 0 .7728-.541-1.0799-.22-16.1748 2.795-18.0428-31.964 1.9347-21.351 11.133-1.391 15.308-20.179 14.6124-29.2251l.0732-1.8736c5.0225 1.827 15.4576 3.0283 20.8114 1.8736 10.2725-2.2129 21.8545-7.6962 39.8775 0 0 0 4.947 3.6523 6.69 15.1861 2 13.26 4.336 19.031 4.336 29.619 0 11.95-3.884 22.737-7.357 26.389l-24.589 7.367-6.63 41.121 32.944 17.184c.685-13.012 15.624-30.403 19.732-44.783 4.794-15.749 7.962-32.918 1.115-48.666-3.425-6.848-4.497-10.501-5.181-18.717-.686-8.902-2.78-18.8952-5.52-27.1125-10.272-32.8683-60.9434-32.1832-85.5936-20.5428" fill="#000"/><path d="m78.4429 268.31c1.6187-11.015 4.2401-21.112 5.7301-27.214 2.7252-11.157 2.028-23.398 4.1943-34.606 1.4579-7.54 6.0598-14.061 6.9114-21.55l-.2573-1.292c-2.611-15.572-21.3622-25.543-2.5748-20.671 5.1311 1.711 9.4424 4.337 14.0984 11.642l.774-.794c5.567-5.567 6.612-9.526 14.267-11.613 7.654-2.088 26.311-1.06 35.038-.559 9.033.31 1.673 7.404-26.708 7.945 10.729 5.022 12.015 9.359 17.98 14.153 5.003 4.017-4.139 13.364-6.828 18.472l-.88.245c-5.935.686-1.598-9.121 0-10.946-2.036-1.311-1.662-.845-1.662-.845l-1.761-.535c-2.283 8.218-23.969 18.724-25.11 20.779-2.054 3.423-2.511 7.755-3.196 11.407l.176 7.916c3.247 21.186 4.707 34.891 5.142 45.055" fill="#f1c8ad"/><path d="m133.284 118.824c2.17-5.485 7.184-6.741 12.312-5.347 4.331 1.679 7.089 6.86 6.182 11.641-1.174 6.199-9.271 9.12-14.571 6.394-4.393-2.258-5.686-8.236-3.923-12.688zm-35.9492 2.27c2.2153-5.955 7.7102-7.168 13.2542-5.352.237.077.461.098.672.089 3.171 2.055 4.894 6.732 4.412 10.5-.821 6.387-8.036 9.969-13.797 7.426-4.6506-2.052-6.2813-7.989-4.5412-12.663zm4.6322 16.581c8.126 2.293 17.743-3.245 17.383-12.483-.006-.136-.023-.272-.031-.408 3.058-.747 6.19-.954 9.257-.078.192.056.373.072.553.069.5 4.586 2.856 8.892 7.437 10.489 7.396 2.577 17.733-.966 18.829-9.793.727-5.865-2.053-12.039-6.965-14.789-.18-.185-.416-.34-.72-.44-.134-.044-.269-.074-.404-.115-1.195-.509-2.491-.836-3.886-.908-.286-.016-.544.027-.771.116-5.711-.216-11.144 2.417-12.978 8.814-.267.931-.444 1.904-.548 2.896-3.445-.85-6.937-.761-10.389.072-1.554-5.866-5.936-10.868-12.506-9.938-.194.028-.36.086-.513.155-5.596.166-10.4532 3.296-12.1547 9.742-1.8222 6.909 1.4224 14.628 8.4067 16.599z" fill="#fff"/><path d="m210.43 182.199c-.47 1.664-.655 3.375-1.098 5.043-.851 3.206 4.104 4.564 4.952 1.365.443-1.668.628-3.378 1.099-5.043.902-3.194-4.053-4.547-4.953-1.365z" fill="#fff"/><path d="m211.901 187.276c3.312 0 3.312-5.137 0-5.137s-3.312 5.137 0 5.137z" fill="#000"/><path d="m168.652 123.078c-.006.048-.012.095-.018.144.073-.535.144-1.07.217-1.604-.03.117-.069.23-.118.34.203-.48.406-.961.608-1.441-.72 1.664-1.032 2.573-1.242 4.378-.241 2.075 1.053 4.107 2.32 5.578 1.814 2.102 5.029 2.133 7.309.943 2.761-1.439 5.167-4.104 5.005-7.418-.073-1.498-.478-2.776-1.233-4.076-.31-.534-.672-1.022-.917-1.592.202.481.405.961.608 1.441-.021-.058-.043-.116-.064-.174-1.131-3.083-4.05-5.139-7.419-4.212-2.971.817-5.345 4.329-4.212 7.418.502 1.369 1.213 2.384 1.827 3.652-.204-.48-.407-.96-.609-1.441.082.195.14.38.172.588-.072-.535-.143-1.07-.216-1.604.012.099.01.198-.003.296.073-.534.144-1.068.216-1.603-.013.103-.04.203-.078.299.202-.48.405-.96.608-1.441-.489 1.046 1.057-1.105.341-.444 1.419-1.306.455-.4-.114-.104 2.436.315 4.872.629 7.309.944.183.228.366.456.548.686.204.48.406.96.609 1.441-.083-.166-.134-.341-.153-.524.072.535.143 1.069.216 1.604-.017-.169-.01-.336.021-.502-.072.535-.144 1.068-.215 1.603.055-.239.127-.459.217-.687-.203.48-.405.96-.608 1.441.652-1.512.93-2.295 1.131-3.926.185-1.49-.754-3.252-1.765-4.264-1.126-1.126-2.672-1.767-4.265-1.767-1.594 0-3.139.64-4.266 1.767-1.238 1.234-1.56 2.592-1.767 4.261z" fill="#fff"/><path d="m174.851 95.5206c-1.55 1.552-2.288 3.4947-2.332 5.6794.003 1.089.278 2.104.824 3.044.737 1.26 2.126 2.488 3.603 2.771 1.937.372 3.846.69 5.79.197.577-.146 1.17-.354 1.652-.702-1.195.863.991-.642 1.278-.998 1.061-1.321.981-1.122 1.585-2.725.382-1.014.221-2.336.003-3.352-.122-.5717-.375-1.153-.707-1.6435-.899-1.3285-1.987-2.3095-3.373-3.1257-1.01-.595-2.126-1.0703-3.241-1.4168-3.056-.9497-6.526-.0539-8.229 2.8176-.521.8789-.96 2.2885-.867 3.317.158 1.7404.235 1.8554.947 3.4454.101.225.238.433.379.635.482.692 1.01 1.358 1.557 2.001.995 1.167 2.78 1.767 4.266 1.767 1.592 0 3.138-.64 4.265-1.767 1.125-1.126 1.765-2.671 1.765-4.264-.072-.535-.144-1.069-.215-1.6035-.286-1.0221-.804-1.909-1.551-2.6617-.138-.1608-.272-.324-.402-.4913.315.4069.629.8138.944 1.2207-.237-.3088-.467-.6312-.62-.9899.202.4801.405.9601.608 1.441-.042-.1005-.076-.2034-.092-.312.072.5347.144 1.0695.216 1.6034-.007-.0523-.009-.1037-.004-.156-.072.5348-.144 1.0683-.215 1.6033.005-.038.014-.073.028-.109-.203.48-.405.96-.609 1.441.013-.027.027-.051.045-.075-.315.407-.629.814-.943 1.221.018-.023.039-.042.061-.061-.407.315-.814.629-1.221.943.03-.022.062-.039.095-.054-.48.203-.96.405-1.44.608.059-.024.119-.037.184-.047-.535.072-1.069.144-1.604.216.142-.017.284-.008.425.011-.534-.072-1.069-.144-1.604-.216.458.066.9.225 1.325.402-.481-.202-.96-.405-1.441-.607.637.27 1.261.602 1.811 1.025-.407-.315-.813-.629-1.22-.943.165.13.327.268.459.435-.315-.407-.629-.814-.943-1.221.046.06.086.123.117.194-.203-.48-.405-.96-.608-1.441.012.031.021.062.027.095-.072-.534-.144-1.068-.216-1.603.003.025.003.048.001.073.072-.535.144-1.068.215-1.6032-.003.0185-.008.0362-.015.0539.204-.4801.406-.9601.609-1.441-.009.0177-.017.0338-.029.0498.314-.4068.629-.8137.943-1.2206-.017.0209-.035.0394-.056.0563.407-.3144.814-.6288 1.221-.9433-.032.0226-.065.0403-.1.0563.48-.2026.96-.4053 1.44-.6079-.089.037-.184.0563-.28.0708.535-.0716 1.069-.144 1.604-.2155-.448.0579-.907.0048-1.351-.0523.534.0716 1.069.1431 1.603.2155-.356-.0482-.712-.1093-1.065-.1769 1.476 1.9387 2.952 3.8767 4.428 5.8151.002-.134.01-.266.025-.399-.073.534-.144 1.068-.216 1.603.022-.138.053-.268.099-.4-.202.48-.405.96-.608 1.441.053-.127.117-.24.199-.351-.314.407-.628.814-.943 1.221.076-.094.157-.179.243-.264 2.323-2.325 2.324-6.2047 0-8.5286-2.322-2.3231-6.206-2.3255-8.529-.0008z" fill="#fff"/><path d="m252.501 25.0525c-8.353-12.1365-21.47-19.28997-34.324-10.3739-9.016-15.55165-31.189-18.20926-47.248-10.5026-9.368 4.49502-13.86 14.1517-13.839 25.6047.001.5315-20.003 5.4737-13.668 30.8886 1.866 7.488 12.129 12.7911 19.872 13.1433 3.583.1617 6.916-.6867 10.419-.9899.231.8411.509 1.663.86 2.4534 2.272 5.144 5.948 9.0045 10.551 11.6356 4.213 2.8876 9.437 4.2956 14.827 4.3246 8.322.5564 16.918-1.7756 23.056-7.9809 3.542-3.584 7.143-8.8043 9.614-14.4983 5.268-.5355 10.392-3.0966 14.525-7.8562 7.671-8.83 12.143-25.9827 5.355-35.8484z" fill="#fff"/><path d="m206.362 42.0387c-.004-.0064-.01-.0112-.015-.0169-.196-.3417-.583-.5138-.947-.4326-.159.0274-.303.0989-.422.2099-1.088.7551-1.946.9529-2.561.5267 1.233-1.4177 2.176-3.4079 1.377-5.078-.369-.7687-1.092-1.2279-1.937-1.2279-.965 0-1.823.5934-2.134 1.4764-.465 1.3211-.346 3.0886.296 4.5891-.972.6867-1.997.7808-2.957.2557-.029-.0161-.057-.0322-.085-.0491.721-.9006 1.185-1.9451 1.289-2.9238.084-.7936-.182-1.6194-.713-2.2089-.758-.8435-1.902-.9914-2.872-.3313-.67.4576-1.095 1.1202-1.228 1.9146-.204 1.2199.288 2.5258.886 3.4578-.464.2774-.938.4438-1.362.4744-.267.0185-.527-.0225-.778-.1231.829-1.8422 1.135-4.6027-.384-5.5805-.796-.5123-2.001-.2413-2.571.5419-.705.9682-.885 2.1872-.52 3.5261.194.7189.553 1.3791 1.042 1.9291-.04.0281-.067.0362-.089.0378-.135-.0949-.292-.1488-.464-.1488-.042 0-.083.0113-.124.0169-.03.0032-.06.0064-.09.0129-.016.004-.031.0088-.048.0136-.299.0788-.561.3056-.658.6345-.003.0104-.001.0201-.004.0313-.023.0821-.033.1657-.033.2501 0 .0185.003.0354.004.0539.005.078.02.1552.045.2332.004.0096.006.0193.01.0289.011.0306.017.062.031.0917l1.419 2.9889c1.528 3.2189 3.056 6.4378 4.581 9.6583.149.312.431.4977.757.4977.318 0 .638-.1817.816-.4623.174-.275.193-.6047.051-.9031l-5.411-11.4048c.229-.1326.453-.3031.667-.5307 1.046.4954 2.235.5372 3.302.1102.363-.1464.723-.3426 1.071-.5862 1.594 1.2431 3.636 1.2415 5.412.0144.685.645 1.623.8637 2.635.7101l-5.881 11.7256c-.149.2968-.135.6256.036.9023.176.2846.498.4688.821.4688.323 0 .607-.1818.759-.4857l7.017-13.9861c.147-.2975.134-.6264-.036-.903zm-4.873-4.0174c.05-.1672.114-.1672.166-.1672.105 0 .29.0611.492.2324.149.1262.305.5275-.323 1.7964-.115.2324-.245.4599-.386.6787-.19-.8339-.178-1.7675.051-2.5403zm-6.147 1.1628c.051-.2678.214-.8902.632-.8902.047 0 .097.0065.151.0193.269.0644.32.4503.329.6144.039.6473-.246 1.4-.776 2.081-.332-.5781-.451-1.2118-.336-1.8245zm-4.94 1.0108c-.155-.5717.055-1.1379.259-1.5118.055-.1021.1-.1656.133-.205.111.16.237.5412.247.7068.012.185-.111.9545-.346 1.7884-.121-.2509-.221-.5139-.293-.7784z" fill="#000"/><path d="m210.098 24.8877c-3.08-3.8727-7.959-6.1853-13.054-6.1853-1.452 0-2.897.1849-4.294.5508-6.119 1.6018-9.997 7.8755-11.008 13.0275-1.125 5.7302 1.734 10.5082 4.501 15.1287 1.469 2.455 2.971 4.9807 3.86 7.6271-.732.1978-1.357.7438-1.692 1.5093-.405.9263-.253 1.9363.393 2.6359.039.0418.084.0716.124.111-.754 1.0984-.947 2.0649-.558 2.8739.199.4157.548.7542.987 1.0341-.029.0394-.059.0748-.083.1198-.5.9593-.538 1.802-.113 2.5048.249.4109.647.7406 1.142 1.006-.014.1318.002.2669.076.3948 1.276 2.2113 3.003 4.5706 7.359 4.5706.238 0 .485-.0064.74-.0209 4.108-.2276 6.076-2.9455 6.182-5.3981.439-.2589.819-.5604 1.096-.9223.519-.6746.668-1.4763.445-2.3818-.087-.3562-.355-.5918-.696-.6521.44-.464.752-1.014.871-1.5914.164-.7976-.043-1.5809-.576-2.2467.416-.3948.759-.9368.759-1.6822 0-1.1459-.84-1.9138-1.784-2.2475.616-1.568 1.393-3.0991 2.158-4.5939l.378-.7414c1.163-2.2934 2.484-4.5425 3.736-6.6501 1.811-3.0508 2.677-5.6988 2.724-8.3339.055-3.0435-1.25-6.3983-3.673-9.4467zm-17.253 42.7115c1.13.1825 2.353.2428 3.454.2428.234 0 .445-.0024.624-.0064 1.071-.0217 3.468-.0748 5.569-.6111-.409 1.4755-1.736 2.8474-4.494 3.0001-2.902.1504-4.211-1.1675-5.153-2.6254zm11.358-8.038c.397.3812.556.7205.474 1.0068-.218.7486-1.893 1.4072-3.458 1.728-1.714.3514-3.467.493-5.162.4117-1.697-.082-3.053-.2275-4.266-.4575-.687-.1303-1.201-.3136-1.621-.5773-.149-.0941-.182-.185-.194-.2461-.064-.3337.304-.8757.534-1.1973.995.3361 2.109.4092 3.08.4696.274.0168.541.0337.795.0546.861.0732 1.699.111 2.492.111 2.762 0 5.152-.439 7.306-1.3308.009.0105.013.0193.02.0273zm-1.762-2.541c.179.2332.466.3715.771.3715.415 0 .755-.2605.864-.665.03-.1109.067-.2211.1-.3329.275.0973.444.2348.465.3884.032.2284-.215.6143-.733.8797-.52.267-1.14.4519-1.738.632l-.277.0837c-1.927.5878-4.092.784-6.746.6015l-.152-.0105c-1.039-.0708-2.113-.1439-3.137-.3216-.565-.0981-1.036-.2558-1.437-.4809-.338-.1906-.383-.5452-.313-.8146.061-.2308.236-.468.525-.5299.136.3217.423.5291.786.5291.298 0 .585-.1359.766-.3651.175-.2179.235-.4929.171-.7743-.803-3.5703-2.685-6.7096-4.504-9.7451-1.058-1.7659-2.153-3.5912-3.01-5.468-1.363-2.9849-1.78-5.8942-1.239-8.6459.581-2.9535 2.408-6.1748 4.892-8.6177 2.713-2.6681 6.048-3.2286 8.369-3.2286 3.455 0 6.967 1.2287 9.635 3.3717 3.057 2.4534 5.076 6.0751 5.403 9.6864.284 3.1449-1.177 6.0695-2.798 8.7617-1.38 2.2917-2.603 4.503-3.738 6.7602l-.222.4398c-1.086 2.1511-2.208 4.3752-2.845 6.7144-.077.2831-.026.5597.142.78zm1.979 6.5222c.078.316.027.5774-.159.8234-.487.6449-2.097 1.4483-7.002 1.6163l-.133.0049c-.209.0072-.519.0144-.889.0144-2.918 0-4.988-.4262-5.404-1.1113-.069-.1142-.139-.3079.051-.6714.054-.1053.082-.2147.095-.3249 1.719.497 3.829.5999 5.118.661l.177.0088c.32.0153.647.0234.976.0234 2.374 0 4.755-.4037 6.703-1.1371.153-.0578.301-.1238.445-.1978-.006.0941-.002.1914.022.2903z" fill="#000"/></svg>